<svg xmlns="http://www.w3.org/2000/svg" width="512" height="512" viewBox="0 0 512 512" fill="none">
  <rect width="512" height="512" rx="96" fill="#0F172A"/>
  <path d="M122 354V160h73c26 0 46 6.7 61 20.1 15 13.4 22.5 29.5 22.5 48.5 0 20.2-7.4 36.6-22.1 49.4-14.6 12.7-34.6 19.1-60.1 19.1h-34.2V354H122Zm40-93.8h31.2c14.2 0 24.8-3.3 31.8-10 7.2-6.7 10.8-15.8 10.8-27.4 0-11.2-3.5-20.2-10.4-27-7-6.8-17.3-10.2-30.8-10.2H162v74.6Z" fill="#F8FAFC"/>
  <circle cx="349" cy="177" r="41" fill="#22C55E"/>
  <rect x="311" y="250" width="80" height="141" rx="28" fill="#F59E0B"/>
  <rect x="408" y="210" width="50" height="181" rx="21" fill="#EF4444"/>
</svg>
