<svg xmlns="http://www.w3.org/2000/svg" width="192" height="192" viewBox="0 0 192 192" fill="none">
  <rect width="192" height="192" rx="40" fill="#0F172A"/>
  <path d="M48 132V60h24c8.4 0 15.2 2.2 20.4 6.7C97.6 71.1 100 77 100 84.4c0 7.5-2.4 13.4-7.2 17.8C88 106.6 81.4 108.8 73 108.8H61.8V132H48Zm13.8-34.8h10.4c4.7 0 8.2-1.1 10.6-3.3 2.4-2.3 3.6-5.4 3.6-9.3 0-3.8-1.2-6.9-3.6-9.2-2.3-2.3-5.7-3.4-10.2-3.4H61.8v25.2Z" fill="#F8FAFC"/>
  <circle cx="131" cy="66" r="16" fill="#22C55E"/>
  <rect x="116" y="94" width="30" height="52" rx="12" fill="#F59E0B"/>
  <rect x="150" y="78" width="18" height="68" rx="9" fill="#EF4444"/>
</svg>
